<?xml version="1.0" encoding="UTF-8" ?>
<!DOCTYPE svg PUBLIC "-//W3C//DTD SVG 1.1//EN" "http://www.w3.org/Graphics/SVG/1.1/DTD/svg11.dtd">
<svg width="681pt" height="787pt" viewBox="0 0 681 787" version="1.1" xmlns="http://www.w3.org/2000/svg">
<g id="#00a0fdff">
<path fill="#00a0fd" opacity="1.00" d=" M 106.59 84.59 C 149.72 43.45 208.38 18.88 268.01 17.60 C 314.01 17.42 360.00 17.54 406.00 17.51 C 459.15 17.24 512.16 35.30 554.21 67.79 C 620.62 119.13 657.89 203.65 656.58 287.00 C 657.41 373.79 618.98 461.29 551.15 516.17 C 508.36 551.47 453.42 571.53 397.99 572.47 C 369.98 572.41 341.97 572.53 313.96 572.47 C 300.55 572.74 287.25 577.33 276.74 585.70 C 213.09 642.73 149.17 699.49 85.56 756.57 C 73.53 767.03 54.55 768.65 41.18 759.81 C 32.36 754.27 26.74 744.52 25.22 734.34 C 25.24 577.80 24.84 421.24 25.15 264.71 C 28.19 197.33 57.58 131.11 106.59 84.59 M 263.86 127.67 C 229.79 130.13 197.08 145.90 173.21 170.22 C 146.10 197.42 130.25 235.62 130.01 274.00 C 130.05 382.15 129.60 490.32 130.14 598.46 C 159.08 565.30 188.15 532.23 216.83 498.84 C 236.34 475.34 266.51 461.42 297.00 461.27 C 330.33 461.20 363.67 461.48 397.00 461.12 C 440.73 459.39 482.67 436.91 509.42 402.47 C 531.10 374.78 543.62 340.20 545.49 305.14 C 547.01 281.31 546.20 256.97 539.10 234.01 C 522.55 177.94 471.52 131.65 412.18 127.69 C 397.16 126.10 382.05 127.43 367.00 126.91 C 332.63 127.31 298.19 126.45 263.86 127.67 Z" />
<path fill="#00a0fd" opacity="1.00" d=" M 231.35 268.41 C 245.95 265.59 261.66 275.66 264.56 290.35 C 268.21 304.49 258.75 319.72 245.08 324.00 C 230.54 329.10 213.08 319.51 209.25 304.65 C 203.87 289.17 215.21 270.89 231.35 268.41 Z" />
<path fill="#00a0fd" opacity="1.00" d=" M 331.32 268.36 C 339.66 267.41 348.66 269.19 354.95 275.06 C 366.23 284.90 367.79 303.62 357.91 314.98 C 346.96 328.98 323.33 328.53 313.29 313.70 C 300.43 297.81 310.93 270.92 331.32 268.36 Z" />
<path fill="#00a0fd" opacity="1.00" d=" M 430.35 268.43 C 446.89 264.99 464.28 278.96 463.73 295.98 C 464.90 310.28 453.05 323.47 439.03 325.09 C 425.63 327.12 411.79 317.83 408.20 304.82 C 403.20 289.21 413.89 270.78 430.35 268.43 Z" />
</g>
<g id="#0015326a">
<path fill="#001532" opacity="0.42" d=" M 263.86 127.67 C 298.19 126.45 332.63 127.31 367.00 126.91 C 382.05 127.43 397.16 126.10 412.18 127.69 C 362.74 127.86 313.30 127.69 263.86 127.67 Z" />
</g>
<g id="#0005113c">
<path fill="#000511" opacity="0.24" d=" M 24.33 267.03 C 24.54 266.45 24.95 265.29 25.15 264.71 C 24.84 421.24 25.24 577.80 25.22 734.34 C 23.52 731.54 24.52 728.09 24.30 725.00 C 24.36 572.34 24.22 419.68 24.33 267.03 Z" />
</g>
</svg>
